Coordinates
version=1
nRows=25
nColumns=34
inDegrees=no

Units are S.I. units (second, meters, Newtons, ...)
If the header above contains a line with 'inDegrees', this indicates whether rotational values are in degrees (yes) or radians (no).

endheader
time	pelvis_tilt	pelvis_list	pelvis_rotation	pelvis_tx	pelvis_ty	pelvis_tz	hip_flexion_r	hip_adduction_r	hip_rotation_r	knee_angle_r	ankle_angle_r	subtalar_angle_r	mtp_angle_r	hip_flexion_l	hip_adduction_l	hip_rotation_l	knee_angle_l	ankle_angle_l	subtalar_angle_l	mtp_angle_l	lumbar_extension	lumbar_bending	lumbar_rotation	arm_flex_r	arm_add_r	arm_rot_r	elbow_flex_r	pro_sup_r	arm_flex_l	arm_add_l	arm_rot_l	elbow_flex_l	pro_sup_l
0	-0.140681	-0.0296903	-0.0183397	-0.15093	0.963649	-0.685479	0.133594	-0.132471	-0.0802535	0.0756369	0.157425	0.134556	-0.0964313	0.164979	-0.189561	-0.231384	0.142878	0.178084	0.148096	-0.0964666	0.0716228	-0.0124559	0.0312933	0.192493	-0.596882	-0.108905	2.0127	1.63072	0.301329	-0.490068	-0.00367572	1.96832	1.70524
0.01	-0.146073	-0.0298155	-0.0200504	-0.151091	0.963282	-0.685358	0.141777	-0.131997	-0.0772493	0.0780225	0.156869	0.131787	-0.0964314	0.172402	-0.19063	-0.232414	0.145308	0.178187	0.146753	-0.0964665	0.0776075	-0.0120139	0.0327379	0.192193	-0.59684	-0.108969	2.01267	1.62948	0.301048	-0.49012	-0.0038253	1.96806	1.70545
0.02	-0.151393	-0.029666	-0.0217525	-0.151262	0.962916	-0.685248	0.149972	-0.131855	-0.0743846	0.0805213	0.15648	0.129316	-0.0964314	0.17973	-0.191354	-0.233369	0.147676	0.178199	0.145235	-0.0964664	0.0834844	-0.0118325	0.0342312	0.191943	-0.596827	-0.109049	2.01267	1.62834	0.300864	-0.490142	-0.00391704	1.96788	1.70527
0.03	-0.156615	-0.0292471	-0.0234354	-0.151441	0.962552	-0.685151	0.158134	-0.132043	-0.0716702	0.0831163	0.156258	0.12715	-0.0964315	0.186928	-0.191737	-0.234247	0.149976	0.178121	0.143555	-0.0964663	0.0892265	-0.0119081	0.0357631	0.191742	-0.596843	-0.109145	2.01269	1.62732	0.300776	-0.490136	-0.00395198	1.96777	1.70469
0.04	-0.161677	-0.0285782	-0.0250763	-0.151626	0.962196	-0.685066	0.166163	-0.13254	-0.0691257	0.0857685	0.156197	0.125293	-0.0964315	0.193924	-0.191796	-0.235054	0.152195	0.177966	0.141753	-0.0964661	0.0947728	-0.0122254	0.0373101	0.19159	-0.596886	-0.109259	2.01273	1.62642	0.300782	-0.490105	-0.00393317	1.96774	1.70369
0.05	-0.166497	-0.0276977	-0.0266447	-0.151812	0.961853	-0.684997	0.17392	-0.133308	-0.0667713	0.0884209	0.156282	0.123742	-0.0964316	0.200617	-0.191569	-0.235795	0.154322	0.17775	0.139886	-0.096466	0.100037	-0.0127529	0.0388382	0.19149	-0.596951	-0.109394	2.01279	1.62566	0.300878	-0.490056	-0.00386529	1.96779	1.70225
0.06	-0.17098	-0.0266616	-0.028109	-0.151996	0.96153	-0.684942	0.18125	-0.134284	-0.0646216	0.0910083	0.156488	0.122474	-0.0964316	0.206899	-0.191117	-0.236476	0.156343	0.177493	0.138017	-0.0964659	0.104922	-0.0134424	0.0403083	0.191443	-0.597035	-0.109548	2.01287	1.62508	0.301054	-0.490002	-0.00375287	1.96792	1.70035
0.07	-0.175044	-0.0255384	-0.0294423	-0.152174	0.961234	-0.684902	0.188009	-0.135392	-0.0626825	0.0934687	0.156779	0.121447	-0.0964317	0.212671	-0.190514	-0.2371	0.158247	0.177212	0.136209	-0.0964658	0.109338	-0.0142346	0.0416831	0.191454	-0.597132	-0.109716	2.01296	1.62471	0.301298	-0.48996	-0.00359785	1.96815	1.69798
0.08	-0.178627	-0.0244003	-0.030628	-0.152342	0.960971	-0.684875	0.194092	-0.136545	-0.0609515	0.0957527	0.157117	0.120606	-0.0964318	0.217859	-0.189842	-0.237673	0.160025	0.176923	0.134517	-0.0964656	0.113217	-0.0150657	0.042934	0.19153	-0.59724	-0.109886	2.01305	1.62456	0.3016	-0.48995	-0.00339693	1.96846	1.6952
0.09	-0.181697	-0.0233154	-0.0316623	-0.152501	0.960743	-0.684858	0.199441	-0.137661	-0.0594182	0.0978293	0.157459	0.119894	-0.0964318	0.222427	-0.189184	-0.238203	0.161672	0.176636	0.132983	-0.0964655	0.116524	-0.0158753	0.0440462	0.191675	-0.597361	-0.110041	2.01312	1.62462	0.30195	-0.489996	-0.00313899	1.96885	1.69208
0.1	-0.184256	-0.0223413	-0.0325554	-0.15265	0.96055	-0.684848	0.20405	-0.138668	-0.0580664	0.0996862	0.157769	0.11926	-0.0964319	0.226375	-0.188613	-0.238709	0.163185	0.176357	0.131647	-0.0964654	0.119256	-0.0166102	0.0450206	0.191901	-0.597503	-0.110154	2.01315	1.62488	0.302354	-0.490122	-0.00280343	1.96927	1.68879
0.11	-0.186329	-0.0215226	-0.033328	-0.152792	0.960393	-0.684841	0.207954	-0.139507	-0.0568748	0.101327	0.158016	0.118663	-0.0964319	0.229732	-0.188191	-0.23922	0.164573	0.176093	0.130542	-0.0964653	0.121434	-0.0172275	0.0458731	0.192223	-0.597685	-0.11019	2.01312	1.62529	0.302832	-0.490352	-0.0023592	1.96969	1.68558
0.12	-0.187951	-0.0208921	-0.0340084	-0.152931	0.960269	-0.684833	0.21121	-0.140132	-0.0558189	0.102763	0.158171	0.118076	-0.096432	0.232544	-0.187969	-0.239772	0.165848	0.175852	0.1297	-0.0964651	0.123084	-0.017694	0.0466322	0.192671	-0.597937	-0.110104	2.013	1.6258	0.303437	-0.490711	-0.00176329	1.97003	1.68274
0.13	-0.189153	-0.0204726	-0.0346282	-0.153074	0.960176	-0.684822	0.213875	-0.14051	-0.0548735	0.104011	0.158205	0.117477	-0.096432	0.234855	-0.187987	-0.240405	0.167027	0.175644	0.129141	-0.096465	0.12422	-0.017985	0.0473348	0.193294	-0.598301	-0.109842	2.01276	1.62635	0.304255	-0.491225	-0.000957974	1.97023	1.68055
0.14	-0.18995	-0.0202782	-0.0352191	-0.153227	0.960114	-0.684804	0.21599	-0.140619	-0.0540151	0.105083	0.15809	0.116858	-0.0964321	0.236692	-0.188269	-0.241145	0.168127	0.175472	0.12887	-0.0964649	0.124827	-0.0180842	0.0480213	0.194171	-0.598831	-0.109339	2.01236	1.6269	0.305411	-0.491922	0.000131823	1.97023	1.67924
0.15	-0.190325	-0.0203128	-0.0358086	-0.153399	0.960086	-0.684778	0.217561	-0.140453	-0.0532263	0.105985	0.157799	0.116227	-0.0964321	0.238049	-0.188822	-0.242005	0.169157	0.175329	0.128871	-0.0964647	0.124849	-0.0179855	0.0487294	0.195419	-0.59959	-0.108517	2.01177	1.62739	0.307063	-0.492838	0.00159922	1.96996	1.67889
0.16	-0.190224	-0.0205653	-0.0364149	-0.153599	0.960097	-0.684743	0.218549	-0.140029	-0.0525046	0.106716	0.157313	0.115622	-0.0964322	0.238873	-0.189626	-0.242973	0.170112	0.175193	0.129097	-0.0964646	0.124172	-0.0176989	0.049487	0.197201	-0.600651	-0.107287	2.01094	1.62773	0.309401	-0.494013	0.00355243	1.96941	1.67936
0.17	-0.189551	-0.0210032	-0.0370419	-0.153838	0.960153	-0.684701	0.218868	-0.139397	-0.0518698	0.107275	0.156628	0.115116	-0.0964322	0.239064	-0.190627	-0.244013	0.170975	0.17502	0.12948	-0.0964645	0.122631	-0.0172579	0.0503059	0.199722	-0.602085	-0.105542	2.00982	1.6278	0.312638	-0.495497	0.00610585	1.96857	1.68033
0.18	-0.18818	-0.0215704	-0.0376774	-0.154125	0.960265	-0.684657	0.218398	-0.138641	-0.0513611	0.107666	0.155756	0.114802	-0.0964323	0.238487	-0.191734	-0.245078	0.171717	0.174755	0.129941	-0.0964643	0.120017	-0.0167229	0.0511791	0.20323	-0.603952	-0.103172	2.00835	1.62747	0.316999	-0.497342	0.00936246	1.96746	1.68148
0.19	-0.185976	-0.0221928	-0.0382962	-0.154472	0.960443	-0.684615	0.217017	-0.137866	-0.0510278	0.107904	0.154724	0.114779	-0.0964323	0.237002	-0.192836	-0.246109	0.172313	0.174335	0.130401	-0.0964642	0.116111	-0.016178	0.0520833	0.208001	-0.606292	-0.100058	2.00647	1.6266	0.322718	-0.499605	0.0134057	1.96608	1.68255
0.2	-0.182821	-0.0227934	-0.0388636	-0.154892	0.960698	-0.68458	0.214625	-0.13718	-0.0509255	0.10802	0.153572	0.115134	-0.0964324	0.234499	-0.19382	-0.247041	0.172749	0.173695	0.130774	-0.0964641	0.110708	-0.0157146	0.0529821	0.214328	-0.609115	-0.0960893	2.00412	1.62507	0.330022	-0.502338	0.0183013	1.96444	1.6833
0.21	-0.178624	-0.023318	-0.0393353	-0.155399	0.961035	-0.684555	0.211154	-0.13666	-0.0511125	0.108055	0.152338	0.115927	-0.0964324	0.230909	-0.19461	-0.247802	0.173036	0.172783	0.130986	-0.096464	0.103632	-0.0154026	0.0538286	0.222504	-0.612406	-0.0911708	2.00125	1.62285	0.339136	-0.505577	0.0241018	1.96253	1.68358
0.22	-0.173318	-0.023761	-0.039656	-0.156009	0.961461	-0.684545	0.206557	-0.136325	-0.0516506	0.108052	0.151041	0.117177	-0.0964325	0.22621	-0.195192	-0.248322	0.173217	0.171573	0.130994	-0.0964638	0.0947312	-0.0152597	0.0545679	0.23281	-0.616132	-0.0852313	1.99783	1.6199	0.350278	-0.509322	0.0308533	1.96034	1.68327
0.23	-0.166859	-0.0241773	-0.0397633	-0.156739	0.961979	-0.684551	0.200806	-0.13612	-0.0525982	0.108048	0.149673	0.118858	-0.0964325	0.220425	-0.19563	-0.248541	0.173368	0.170072	0.130792	-0.0964637	0.0838735	-0.0152368	0.0551454	0.245494	-0.620253	-0.0782297	1.99382	1.61622	0.363664	-0.513531	0.0386017	1.95784	1.68227
0.24	-0.159265	-0.0246789	-0.0395992	-0.157609	0.96259	-0.684576	0.193939	-0.135921	-0.0539904	0.10808	0.148199	0.120881	-0.0964326	0.213669	-0.196069	-0.248414	0.173605	0.168326	0.13042	-0.0964636	0.0709945	-0.015221	0.055522	0.26076	-0.624728	-0.0701592	1.98924	1.61184	0.3795	-0.518121	0.0473951	1.95497	1.68056
